<svg xmlns="http://www.w3.org/2000/svg" xmlns:xlink="http://www.w3.org/1999/xlink" width="300" zoomAndPan="magnify" viewBox="0 0 224.87999 209.249992" height="279" preserveAspectRatio="xMidYMid meet" version="1.0"><defs><clipPath id="a6787e5c98"><path d="M 0.339844 0 L 134 0 L 134 145 L 0.339844 145 Z M 0.339844 0 " clip-rule="nonzero"/></clipPath></defs><g clip-path="url(#a6787e5c98)"><path fill="#000000" d="M 131.261719 0.632812 L 102.511719 0.632812 C 102.152344 0.632812 101.074219 0.8125 100.894531 1.175781 L 66.929688 49.152344 L 51.835938 28.128906 L 18.410156 28.128906 C 29.011719 43.042969 39.433594 57.957031 50.039062 72.515625 L 0.800781 141.699219 C -0.277344 142.957031 0.441406 144.394531 2.238281 144.394531 L 30.992188 144.394531 C 31.351562 144.394531 32.429688 144.214844 32.609375 143.855469 L 66.929688 95.875 L 81.84375 116.898438 L 115.269531 116.898438 C 104.667969 101.984375 94.0625 87.070312 83.460938 72.515625 L 133.058594 3.328125 C 133.957031 2.070312 133.238281 0.632812 131.261719 0.632812 Z M 131.261719 0.632812 " fill-opacity="1" fill-rule="nonzero"/></g><path fill="#000000" d="M 190.59375 127.84375 C 180.347656 122.992188 170.285156 122.992188 169.386719 122.992188 C 160.222656 122.992188 151.417969 117.601562 151.417969 107.179688 C 151.417969 95.679688 159.503906 89.75 169.386719 89.75 C 178.730469 89.75 186.640625 94.601562 187 104.84375 C 187 105.382812 187.894531 106.28125 188.976562 106.28125 L 211.4375 106.28125 C 212.695312 106.28125 213.59375 105.382812 213.414062 104.84375 C 213.054688 80.40625 194.007812 63.871094 169.386719 63.871094 C 146.386719 63.871094 124.644531 80.226562 124.644531 107.179688 C 124.644531 123.890625 133.089844 136.648438 148.003906 143.476562 C 158.425781 148.332031 168.132812 148.332031 169.386719 148.332031 C 177.476562 148.691406 187.359375 155.160156 187.359375 165.761719 C 187.359375 175.285156 178.914062 181.753906 169.386719 181.753906 C 169.386719 181.753906 169.386719 181.753906 169.207031 181.753906 L 169.207031 207.632812 C 169.386719 207.632812 169.386719 207.632812 169.386719 207.632812 C 192.390625 207.632812 213.953125 192.714844 213.953125 165.761719 C 213.953125 148.871094 205.6875 134.855469 190.59375 127.84375 Z M 190.59375 127.84375 " fill-opacity="1" fill-rule="nonzero"/><path fill="#000000" d="M 20.878906 177.476562 L 25.09375 184.074219 L 21.261719 184.074219 L 18.800781 180.019531 L 16.429688 184.074219 L 12.992188 184.074219 L 17.164062 177.589844 L 13.226562 171.378906 L 17.058594 171.378906 L 19.183594 175 L 21.332031 171.378906 L 24.664062 171.378906 Z M 20.878906 177.476562 " fill-opacity="1" fill-rule="nonzero"/><path fill="#000000" d="M 45.582031 181.132812 L 45.582031 184.074219 L 36.835938 184.074219 L 36.835938 171.378906 L 45.394531 171.378906 L 45.394531 174.210938 L 39.96875 174.210938 L 39.96875 176.3125 L 44.640625 176.3125 L 44.640625 178.949219 L 39.96875 178.949219 L 39.96875 181.132812 Z M 45.582031 181.132812 " fill-opacity="1" fill-rule="nonzero"/><path fill="#000000" d="M 69.039062 171.378906 L 69.039062 184.074219 L 66.042969 184.074219 L 61.015625 176.742188 L 61.015625 184.074219 L 58.085938 184.074219 L 58.085938 171.378906 L 61.0625 171.378906 L 66.101562 178.996094 L 66.101562 171.378906 Z M 69.039062 171.378906 " fill-opacity="1" fill-rule="nonzero"/><path fill="#000000" d="M 93.523438 177.71875 C 93.523438 180.027344 93.050781 181.699219 92.117188 182.726562 C 91.179688 183.757812 89.65625 184.269531 87.550781 184.269531 C 85.351562 184.269531 83.804688 183.789062 82.917969 182.816406 C 82.027344 181.84375 81.582031 180.144531 81.582031 177.71875 C 81.582031 175.414062 82.050781 173.746094 82.988281 172.726562 C 83.921875 171.695312 85.445312 171.179688 87.550781 171.179688 C 89.75 171.179688 91.292969 171.667969 92.1875 172.644531 C 93.074219 173.613281 93.523438 175.304688 93.523438 177.71875 Z M 85.148438 180.425781 C 85.316406 180.769531 85.570312 181.007812 85.914062 181.144531 C 86.261719 181.277344 86.808594 181.34375 87.550781 181.34375 C 88.296875 181.34375 88.835938 181.277344 89.175781 181.144531 C 89.527344 181.007812 89.789062 180.769531 89.96875 180.425781 C 90.097656 180.15625 90.195312 179.808594 90.257812 179.378906 C 90.320312 178.949219 90.351562 178.394531 90.351562 177.71875 C 90.351562 177.03125 90.320312 176.472656 90.257812 176.035156 C 90.195312 175.59375 90.097656 175.238281 89.96875 174.964844 C 89.804688 174.613281 89.550781 174.363281 89.199219 174.222656 C 88.859375 174.082031 88.308594 174.015625 87.550781 174.015625 C 86.800781 174.015625 86.25 174.082031 85.902344 174.222656 C 85.558594 174.363281 85.308594 174.613281 85.148438 174.964844 C 85.007812 175.238281 84.90625 175.59375 84.84375 176.035156 C 84.789062 176.472656 84.765625 177.03125 84.765625 177.71875 C 84.765625 178.394531 84.789062 178.949219 84.84375 179.378906 C 84.90625 179.808594 85.007812 180.15625 85.148438 180.425781 Z M 85.148438 180.425781 " fill-opacity="1" fill-rule="nonzero"/><path fill="#000000" d="M 117.03125 171.378906 L 117.03125 184.074219 L 114.03125 184.074219 L 109.003906 176.742188 L 109.003906 184.074219 L 106.078125 184.074219 L 106.078125 171.378906 L 109.050781 171.378906 L 114.089844 178.996094 L 114.089844 171.378906 Z M 117.03125 171.378906 " fill-opacity="1" fill-rule="nonzero"/><path fill="#000000" d="M 170.867188 53.308594 L 168.300781 52.707031 C 167.277344 52.460938 166.582031 52.085938 166.207031 51.589844 C 165.835938 51.089844 165.652344 50.371094 165.652344 49.441406 C 165.652344 47.972656 166.039062 46.894531 166.8125 46.203125 C 167.585938 45.503906 168.789062 45.15625 170.425781 45.15625 C 171.097656 45.15625 171.695312 45.1875 172.226562 45.238281 C 172.75 45.292969 173.238281 45.386719 173.6875 45.515625 L 173.6875 48.328125 C 172.65625 48.160156 171.949219 48.058594 171.5625 48.035156 C 171.183594 48.007812 170.785156 47.992188 170.367188 47.992188 C 169.800781 47.992188 169.386719 48.089844 169.125 48.28125 C 168.867188 48.46875 168.742188 48.78125 168.742188 49.222656 C 168.742188 49.441406 168.777344 49.605469 168.855469 49.722656 C 168.941406 49.835938 169.101562 49.925781 169.332031 49.976562 L 171.761719 50.535156 C 172.464844 50.695312 172.972656 50.855469 173.28125 51.011719 C 173.589844 51.167969 173.839844 51.367188 174.023438 51.613281 C 174.238281 51.871094 174.398438 52.199219 174.5 52.601562 C 174.601562 53.003906 174.652344 53.496094 174.652344 54.078125 C 174.652344 55.550781 174.261719 56.613281 173.480469 57.269531 C 172.695312 57.921875 171.484375 58.246094 169.84375 58.246094 C 169.007812 58.246094 168.210938 58.195312 167.453125 58.09375 C 166.691406 57.996094 166.105469 57.871094 165.6875 57.722656 L 165.6875 54.75 C 166.226562 54.929688 166.871094 55.070312 167.613281 55.167969 C 168.355469 55.269531 169.101562 55.320312 169.84375 55.320312 C 170.429688 55.320312 170.84375 55.246094 171.074219 55.097656 C 171.308594 54.945312 171.421875 54.644531 171.421875 54.203125 C 171.421875 53.917969 171.382812 53.714844 171.308594 53.589844 C 171.230469 53.457031 171.082031 53.367188 170.867188 53.308594 Z M 170.867188 53.308594 " fill-opacity="1" fill-rule="nonzero"/><path fill="#000000" d="M 186.3125 45.355469 L 186.3125 48.1875 L 182.851562 48.1875 L 182.851562 58.050781 L 179.714844 58.050781 L 179.714844 48.1875 L 176.253906 48.1875 L 176.253906 45.355469 Z M 186.3125 45.355469 " fill-opacity="1" fill-rule="nonzero"/><path fill="#000000" d="M 190.828125 58.050781 L 187.527344 58.050781 L 192.222656 45.355469 L 195.484375 45.355469 L 200.0625 58.050781 L 196.773438 58.050781 L 196.113281 55.921875 L 191.488281 55.921875 Z M 193.777344 48.476562 C 193.667969 48.851562 193.546875 49.25 193.417969 49.675781 C 193.292969 50.101562 193.082031 50.796875 192.789062 51.753906 L 192.269531 53.4375 L 195.324219 53.4375 L 194.800781 51.753906 C 194.621094 51.242188 194.441406 50.703125 194.265625 50.128906 C 194.09375 49.554688 193.929688 49.007812 193.777344 48.476562 Z M 193.777344 48.476562 " fill-opacity="1" fill-rule="nonzero"/><path fill="#000000" d="M 211.367188 45.355469 L 211.367188 48.1875 L 207.90625 48.1875 L 207.90625 58.050781 L 204.769531 58.050781 L 204.769531 48.1875 L 201.308594 48.1875 L 201.308594 45.355469 Z M 211.367188 45.355469 " fill-opacity="1" fill-rule="nonzero"/><path fill="#000000" d="M 218.425781 53.308594 L 215.859375 52.707031 C 214.835938 52.460938 214.140625 52.085938 213.769531 51.589844 C 213.398438 51.089844 213.210938 50.371094 213.210938 49.441406 C 213.210938 47.972656 213.597656 46.894531 214.371094 46.203125 C 215.144531 45.503906 216.351562 45.15625 217.984375 45.15625 C 218.660156 45.15625 219.257812 45.1875 219.785156 45.238281 C 220.308594 45.292969 220.796875 45.386719 221.25 45.515625 L 221.25 48.328125 C 220.21875 48.160156 219.507812 48.058594 219.121094 48.035156 C 218.742188 48.007812 218.34375 47.992188 217.925781 47.992188 C 217.359375 47.992188 216.945312 48.089844 216.683594 48.28125 C 216.429688 48.46875 216.300781 48.78125 216.300781 49.222656 C 216.300781 49.441406 216.339844 49.605469 216.417969 49.722656 C 216.5 49.835938 216.660156 49.925781 216.894531 49.976562 L 219.320312 50.535156 C 220.023438 50.695312 220.53125 50.855469 220.84375 51.011719 C 221.148438 51.167969 221.398438 51.367188 221.585938 51.613281 C 221.800781 51.871094 221.960938 52.199219 222.0625 52.601562 C 222.160156 53.003906 222.210938 53.496094 222.210938 54.078125 C 222.210938 55.550781 221.820312 56.613281 221.039062 57.269531 C 220.253906 57.921875 219.042969 58.246094 217.402344 58.246094 C 216.566406 58.246094 215.769531 58.195312 215.011719 58.09375 C 214.25 57.996094 213.664062 57.871094 213.246094 57.722656 L 213.246094 54.75 C 213.785156 54.929688 214.429688 55.070312 215.175781 55.167969 C 215.917969 55.269531 216.660156 55.320312 217.402344 55.320312 C 217.992188 55.320312 218.402344 55.246094 218.636719 55.097656 C 218.867188 54.945312 218.984375 54.644531 218.984375 54.203125 C 218.984375 53.917969 218.941406 53.714844 218.867188 53.589844 C 218.789062 53.457031 218.640625 53.367188 218.425781 53.308594 Z M 218.425781 53.308594 " fill-opacity="1" fill-rule="nonzero"/></svg>